<?xml version="1.0" standalone="no"?>
<!DOCTYPE svg PUBLIC "-//W3C//DTD SVG 20010904//EN"
 "http://www.w3.org/TR/2001/REC-SVG-20010904/DTD/svg10.dtd">
<svg version="1.0" xmlns="http://www.w3.org/2000/svg"
 width="886.000000pt" height="900.000000pt" viewBox="0 0 886.000000 900.000000"
 preserveAspectRatio="xMidYMid meet">
<metadata>
Created by potrace 1.13, written by Peter Selinger 2001-2015
</metadata>
<g transform="translate(0.000000,900.000000) scale(0.100000,-0.100000)"
fill="#000000" stroke="none">
<path d="M8135 8330 l-670 -670 -80 72 c-462 411 -988 714 -1574 908 -609 201
-1295 266 -1944 184 -1263 -159 -2412 -873 -3122 -1939 -598 -898 -844 -1948
-709 -3025 108 -864 498 -1722 1078 -2370 l85 -95 -575 -575 c-316 -316 -574
-580 -574 -585 0 -5 261 251 580 570 l579 579 138 -135 c423 -413 900 -723
1454 -943 351 -139 677 -222 1089 -278 146 -20 208 -23 535 -23 298 0 398 4
515 18 951 119 1780 498 2484 1136 434 394 818 924 1052 1456 190 430 300 832
361 1315 26 207 26 791 0 1000 -124 1001 -544 1883 -1231 2588 l-130 133 675
675 c370 370 669 674 664 674 -6 0 -312 -301 -680 -670z m-3255 495 c923 -97
1776 -468 2467 -1075 57 -50 103 -94 103 -98 0 -4 -1404 -1411 -3120 -3127
l-3119 -3119 -32 29 c-46 44 -205 236 -291 350 -795 1063 -1067 2431 -742
3728 268 1068 945 2014 1874 2619 653 425 1390 665 2190 712 126 7 527 -4 670
-19z m2782 -1381 c709 -772 1104 -1681 1179 -2709 14 -197 6 -608 -15 -795
-84 -716 -316 -1356 -711 -1955 -416 -631 -1000 -1151 -1682 -1498 -534 -271
-1076 -422 -1683 -468 -197 -15 -638 -6 -820 16 -838 102 -1608 421 -2244 929
-129 103 -319 272 -411 365 l-60 61 3125 3125 3124 3124 35 -29 c20 -15 93
-90 163 -166z"/>
<path d="M1921 6907 c-37 -45 12 -68 182 -88 56 -6 111 -13 123 -15 20 -3 21
-12 27 -170 9 -215 9 -1597 0 -1820 l-6 -171 -111 -11 c-185 -20 -240 -41
-223 -87 7 -15 19 -16 150 -8 159 9 442 11 652 3 l140 -5 3 27 c3 22 -2 28
-30 37 -39 13 -220 41 -264 41 -20 0 -34 6 -38 16 -4 10 -9 232 -13 495 l-6
479 84 0 c160 0 276 -44 367 -139 80 -82 203 -251 342 -466 264 -409 379 -528
528 -551 61 -10 157 19 217 64 124 94 124 193 0 128 -58 -31 -67 -32 -123 -5
-64 31 -152 140 -330 409 -274 416 -374 534 -498 592 -89 42 -180 58 -334 58
l-135 1 57 52 c571 524 710 647 943 834 213 171 245 190 363 217 116 26 141
41 122 76 -10 19 -18 21 -53 16 -103 -13 -429 -18 -546 -7 -133 12 -155 8
-149 -33 2 -16 18 -26 73 -43 39 -12 87 -25 108 -28 l38 -6 -31 -37 c-59 -68
-981 -1001 -1012 -1024 l-31 -22 6 533 c5 375 10 538 18 547 6 8 30 14 53 14
50 0 214 26 250 40 30 11 36 54 10 64 -9 3 -80 1 -158 -5 -138 -11 -592 -7
-701 7 -39 5 -54 3 -64 -9z"/>
<path d="M4628 4544 c-5 -4 -8 -18 -8 -31 0 -27 19 -37 99 -53 81 -16 103 -37
177 -176 l66 -126 -12 -162 c-25 -346 -79 -845 -126 -1181 -25 -182 -71 -472
-81 -512 -4 -18 -16 -23 -76 -33 -182 -29 -217 -40 -217 -70 0 -33 30 -40 121
-30 107 12 450 13 598 0 122 -10 151 -4 151 30 0 11 -8 24 -18 29 -17 9 -150
29 -304 46 l-58 6 0 237 c0 354 29 807 84 1297 l22 200 123 -244 c68 -135 236
-477 373 -760 137 -284 255 -522 261 -529 5 -7 19 -12 31 -10 24 4 29 16 167
408 114 323 516 1416 529 1440 7 10 9 -1 10 -36 0 -28 20 -294 44 -590 52
-626 72 -895 86 -1159 15 -282 20 -252 -47 -260 -155 -17 -288 -37 -305 -46
-10 -5 -18 -18 -18 -28 0 -38 20 -42 166 -31 173 12 535 12 673 0 111 -10 141
-4 141 30 0 28 -21 36 -165 60 -72 12 -132 23 -134 25 -6 6 -38 282 -70 605
-50 494 -91 1016 -115 1451 l-5 95 124 23 c102 18 127 27 136 43 8 16 8 24 -4
35 -13 14 -38 14 -199 4 -133 -9 -203 -9 -257 -1 -41 6 -78 7 -82 3 -4 -5
-109 -294 -234 -643 -300 -840 -379 -1049 -392 -1036 -10 9 -504 1019 -598
1221 -104 224 -181 402 -191 440 l-6 25 -97 -7 c-118 -10 -172 -9 -276 1 -44
5 -83 5 -87 0z"/>
</g>
</svg>
