<?xml version="1.0" standalone="no"?>
<!DOCTYPE svg PUBLIC "-//W3C//DTD SVG 20010904//EN"
 "http://www.w3.org/TR/2001/REC-SVG-20010904/DTD/svg10.dtd">
<svg version="1.0" xmlns="http://www.w3.org/2000/svg"
 width="886.000000pt" height="900.000000pt" viewBox="0 0 886.000000 900.000000"
 preserveAspectRatio="xMidYMid meet">
<metadata>
Created by potrace 1.13, written by Peter Selinger 2001-2015
</metadata>
<g transform="translate(0.000000,900.000000) scale(0.100000,-0.100000)"
fill="#000000" stroke="none">
<path d="M4430 4625 c-2406 -2406 -4377 -4381 -4379 -4388 -2 -6 257 248 575
565 520 519 8183 8182 8193 8193 2 3 0 5 -5 5 -5 0 -1978 -1969 -4384 -4375z"/>
<path d="M1921 6907 c-37 -45 12 -68 182 -88 56 -6 111 -13 123 -15 20 -3 21
-12 27 -170 9 -215 9 -1597 0 -1820 l-6 -171 -111 -11 c-185 -20 -240 -41
-223 -87 7 -15 19 -16 150 -8 159 9 442 11 652 3 l140 -5 3 27 c3 22 -2 28
-30 37 -39 13 -220 41 -264 41 -20 0 -34 6 -38 16 -4 10 -9 232 -13 495 l-6
479 84 0 c160 0 276 -44 367 -139 80 -82 203 -251 342 -466 264 -409 379 -528
528 -551 61 -10 157 19 217 64 124 94 124 193 0 128 -58 -31 -67 -32 -123 -5
-64 31 -152 140 -330 409 -274 416 -374 534 -498 592 -89 42 -180 58 -334 58
l-135 1 57 52 c571 524 710 647 943 834 213 171 245 190 363 217 116 26 141
41 122 76 -10 19 -18 21 -53 16 -103 -13 -429 -18 -546 -7 -133 12 -155 8
-149 -33 2 -16 18 -26 73 -43 39 -12 87 -25 108 -28 l38 -6 -31 -37 c-59 -68
-981 -1001 -1012 -1024 l-31 -22 6 533 c5 375 10 538 18 547 6 8 30 14 53 14
50 0 214 26 250 40 30 11 36 54 10 64 -9 3 -80 1 -158 -5 -138 -11 -592 -7
-701 7 -39 5 -54 3 -64 -9z"/>
<path d="M4631 4536 c-22 -27 -9 -50 34 -60 99 -22 118 -29 145 -54 17 -15 57
-78 90 -140 71 -132 69 -110 40 -450 -55 -640 -172 -1512 -207 -1548 -8 -8
-25 -14 -38 -14 -14 0 -70 -9 -126 -20 -114 -22 -139 -39 -105 -72 11 -11 30
-12 92 -5 98 11 508 11 629 0 103 -9 121 -8 129 13 16 41 -21 54 -209 74 -55
6 -114 13 -131 15 l-32 5 -4 93 c-7 127 8 592 27 838 18 227 73 791 79 796 9
9 222 -419 634 -1272 63 -132 121 -246 128 -254 19 -21 43 -6 63 43 11 24 65
174 121 332 118 336 516 1418 535 1453 11 21 13 12 19 -75 4 -54 27 -342 51
-639 51 -613 71 -906 81 -1147 l7 -167 -34 -5 c-19 -3 -79 -10 -134 -16 -159
-17 -203 -28 -211 -52 -8 -26 19 -50 50 -43 12 2 123 9 248 15 208 10 547 2
625 -15 20 -5 53 17 53 33 -1 29 -75 52 -217 68 -35 3 -69 12 -77 18 -32 26
-155 1329 -192 2027 l-6 126 121 22 c120 23 155 38 145 66 -9 24 -31 25 -207
13 -120 -8 -196 -8 -252 -1 -44 6 -82 9 -84 7 -2 -2 -109 -297 -237 -656 -235
-655 -342 -945 -373 -1006 l-17 -33 -264 538 c-302 617 -388 798 -476 1008
l-63 150 -73 -5 c-108 -7 -225 -6 -298 3 -55 7 -68 6 -79 -7z"/>
</g>
</svg>
